#!OML:ASF E:\inclinewalkrobotboard\Project 1\Capture day 1\Session 1\subject1.ASF
:FULLY-SPECIFIED
:DEGREES
178
root 7.79018 16.0013 12.8986 -178.382 6.16746 -179.486
lowerback 16.2089 -4.36439 -7.87357
upperback 9.19466 -5.3637 2.89221
thorax 1.95043 -2.54828 8.26285
lowerneck -2.18162 2.63659 -2.84391
upperneck 18.6673 4.66292 1.23478
head 5.90944 2.52352 1.16353
rclavicle -3.44394e-014 2.96189e-014
rhumerus -56.0706 -20.7932 -54.9351
rradius 35.859
rwrist 10.7151
rhand -10.4759 -39.0314
rfingers 7.12502
rthumb 15.5253 -68.4282
lclavicle -3.44394e-014 2.96189e-014
lhumerus 6.0011 -5.2998 78.3517
lradius 58.8379
lwrist 0.0492274
lhand -43.2208 -29.5441
lfingers 7.12502
lthumb -16.071 -0.190526
rfemur -72.0874 9.6955 7.54518
rtibia 14.8464
rfoot 346.801 356.879
rtoes -32.3126
lfemur -25.7059 -4.32842 -26.6534
ltibia 41.0733
lfoot -16.857 -1.40545
ltoes -53.6657
179
root 7.81298 15.9881 12.8326 -179.695 6.29423 -179.616
lowerback 17.2244 -4.5252 -8.38407
upperback 9.64846 -5.57319 2.47867
thorax 1.98756 -2.62543 8.19095
lowerneck -2.24612 2.92629 -2.52008
upperneck 18.4341 4.97767 1.33879
head 5.84442 2.69345 1.15503
rclavicle -5.13858e-014 -1.15295e-014
rhumerus -57.6161 -21.802 -55.7671
rradius 35.7119
rwrist 11.6727
rhand -10.7272 -38.5787
rfingers 7.12502
rthumb 15.2832 -67.9941
lclavicle -5.13858e-014 -1.15295e-014
lhumerus 7.64358 -6.87817 81.0778
lradius 62.5443
lwrist -1.13344
lhand -41.7575 -30.4088
lfingers 7.12502
lthumb -14.6615 -0.947181
rfemur -75.6616 10.5528 9.82978
rtibia 17.9921
rfoot 346.231 356.262
rtoes -33.6898
lfemur -24.0904 -3.38505 -26.798
ltibia 41.1548
lfoot -17.5305 -1.74039
ltoes -53.8819
180
root 7.84716 15.9802 12.7705 -181.145 6.38755 -180.007
lowerback 18.4068 -4.55719 -9.37068
upperback 10.0063 -5.71262 2.09497
thorax 1.89979 -2.68193 8.43139
lowerneck -1.96597 3.11552 -2.48803
upperneck 18.0783 5.17908 1.44267
head 5.67823 2.79602 1.17783
rclavicle -6.55989e-015 -2.78299e-015
rhumerus -58.9085 -22.6985 -56.4488
rradius 35.6593
rwrist 12.4806
rhand -11.2848 -36.2601
rfingers 7.12502
rthumb 14.7462 -65.7156
lclavicle -6.55989e-015 -2.78299e-015
lhumerus 8.93366 -8.72036 83.5581
lradius 65.7202
lwrist -2.8599
lhand -44.0267 -31.9976
lfingers 7.12502
lthumb -16.8469 -2.70839
rfemur -79.742 12.7556 8.44241
rtibia 24.319
rfoot 344.829 351.402
rtoes -31.9998
lfemur -22.1152 -2.81357 -27.1809
ltibia 40.8941
lfoot -18.2265 -1.98592
ltoes -53.8756
181
root 7.87625 15.9943 12.7082 -182.512 6.51533 -180.358
lowerback 19.5714 -4.50882 -10.3062
upperback 10.2851 -5.77106 1.77831
thorax 1.73117 -2.69345 8.70707
lowerneck -1.98046 3.21747 -2.54617
upperneck 18.1281 5.31949 1.48519
head 5.69094 2.86335 1.2091
rclavicle 3.61788e-014 -1.27222e-014
rhumerus -59.6473 -23.0362 -57.6434
rradius 35.793
rwrist 12.511
rhand -10.7202 -36.7414
rfingers 7.12502
rthumb 15.29 -66.1562
lclavicle 3.61788e-014 -1.27222e-014
lhumerus 9.86666 -10.5183 85.8039
lradius 68.3933
lwrist -5.29062
lhand -43.8719 -33.0147
lfingers 7.12502
lthumb -16.6979 -3.7129
rfemur -83.478 14.6974 7.30473
rtibia 31.9652
rfoot 344.284 349.6
rtoes -28.0983
lfemur -20.0055 -2.67119 -27.539
ltibia 40.2442
lfoot -18.7685 -1.93985
ltoes -53.8553
182
root 7.89371 16.0285 12.6446 -183.543 6.46071 -180.502
lowerback 20.5078 -4.86576 -11.0997
upperback 10.5285 -6.35309 1.65226
thorax 1.77931 -2.99121 9.1637
lowerneck -2.6259 3.64935 -3.38939
upperneck 18.5286 5.9919 1.55588
head 5.88897 3.1298 1.42946
rclavicle -9.54166e-015 1.74931e-014
rhumerus -58.6829 -22.069 -59.7474
rradius 35.7861
rwrist 12.0409
rhand -12.1849 -34.9851
rfingers 7.12502
rthumb 13.8788 -64.502
lclavicle -9.54166e-015 1.74931e-014
lhumerus 10.266 -11.3858 87.7461
lradius 71.0194
lwrist -7.57254
lhand -44.3161 -33.0766
lfingers 7.12502
lthumb -17.1255 -3.81135
rfemur -87.222 16.3356 6.3478
rtibia 39.5985
rfoot 345.095 350.525
rtoes -29.3058
lfemur -18.2215 -2.89371 -27.7403
ltibia 39.5485
lfoot -19.1048 -1.87928
ltoes -53.554
183
root 7.89987 16.0789 12.5698 -184.162 6.22953 -180.321
lowerback 20.8352 -5.16482 -11.0918
upperback 10.6932 -6.71695 1.45629
thorax 1.86063 -3.15441 9.01295
lowerneck -2.79915 3.80451 -3.59818
upperneck 18.7636 6.23393 1.63635
head 5.97837 3.23891 1.51235
rclavicle -6.48038e-014 -2.22639e-014
rhumerus -58.0076 -21.7193 -61.7122
rradius 35.9494
rwrist 11.841
rhand -12.3555 -34.2815
rfingers 7.12502
rthumb 13.7144 -63.8095
lclavicle -6.48038e-014 -2.22639e-014
lhumerus 10.1604 -12.6899 89.4244
lradius 73.2576
lwrist -10.5962
lhand -44.0879 -33.9732
lfingers 7.12502
lthumb -16.9058 -4.68901
rfemur -90.381 17.5651 6.0121
rtibia 47.0387
rfoot 345.39 353.062
rtoes -32.2703
lfemur -16.7946 -3.09558 -27.6423
ltibia 38.8596
lfoot -19.2709 -1.72754
ltoes -53.7379
184
root 7.90573 16.1417 12.5024 -184.217 5.55598 -179.736
lowerback 20.733 -5.52584 -10.6222
upperback 10.7003 -7.09921 1.50101
thorax 1.9361 -3.33144 8.8395
lowerneck -2.92016 3.83211 -3.52825
upperneck 19.0942 6.30988 1.62117
head 6.1049 3.28347 1.51298
rclavicle -6.12257e-014 -4.77083e-015
rhumerus -57.4082 -21.5073 -63.4559
rradius 36.3893
rwrist 12.0069
rhand -12.4435 -33.42
rfingers 7.12502
rthumb 13.6296 -62.9538
lclavicle -6.12257e-014 -4.77083e-015
lhumerus 9.47508 -14.0377 91.1346
lradius 75.493
lwrist -13.7092
lhand -43.6606 -33.6297
lfingers 7.12502
lthumb -16.4944 -4.31084
rfemur -92.4873 18.0555 6.30039
rtibia 52.0901
rfoot 346.177 351.555
rtoes -35.5564
lfemur -16.0223 -3.32317 -27.0997
ltibia 38.2097
lfoot -19.1378 -1.44829
ltoes -54.8507
185
root 7.90831 16.2139 12.4471 -183.892 4.56212 -179.106
lowerback 20.4307 -5.86163 -9.99298
upperback 10.5911 -7.44068 1.6412
thorax 1.9535 -3.48914 8.66216
lowerneck -3.32718 3.72788 -3.02201
upperneck 19.6156 6.21655 1.41767
head 6.36598 3.2597 1.38727
rclavicle 2.5842e-014 -7.15625e-015
rhumerus -56.7882 -21.4391 -65.0779
rradius 37.1338
rwrist 12.1836
rhand -12.5449 -32.6283
rfingers 7.12502
rthumb 13.5318 -62.1686
lclavicle 2.5842e-014 -7.15625e-015
lhumerus 8.61932 -15.7242 92.766
lradius 77.325
lwrist -16.3867
lhand -43.3545 -33.9644
lfingers 7.12502
lthumb -16.1998 -4.62127
rfemur -93.07 17.898 6.44285
rtibia 53.5914
rfoot 345.939 350.197
rtoes -31.2132
lfemur -15.6108 -3.77389 -26.5346
ltibia 37.2847
lfoot -18.7079 -1.42553
ltoes -55.0955
186
root 7.90486 16.2845 12.4036 -183.138 4.03546 -178.616
lowerback 20.1045 -5.71594 -9.77372
upperback 10.0851 -7.32499 2.127
thorax 1.55854 -3.45063 9.05545
lowerneck -3.55416 3.44498 -2.59801
upperneck 20.1278 5.92437 1.03486
head 6.60169 3.12873 1.19979
rclavicle -4.35338e-014 7.95139e-016
rhumerus -56.4072 -20.9116 -66.1357
rradius 38.1826
rwrist 11.9152
rhand -12.8418 -32.3124
rfingers 7.12502
rthumb 13.2457 -61.8716
lclavicle -4.35338e-014 7.95139e-016
lhumerus 7.55752 -17.4831 94.7425
lradius 78.418
lwrist -17.1075
lhand -43.0631 -32.9669
lfingers 7.12502
lthumb -15.9191 -3.60117
rfemur -93.2274 17.833 6.23773
rtibia 53.2638
rfoot 345.219 349.616
rtoes -28.1414
lfemur -15.5813 -4.15265 -26.0517
ltibia 36.0676
lfoot -18.3306 -1.50585
ltoes -54.328
187
root 7.89702 16.3477 12.3607 -182.377 3.78597 -178.293
lowerback 19.5606 -5.51323 -9.53894
upperback 9.60265 -7.12079 2.42685
thorax 1.24953 -3.3663 9.19936
lowerneck -3.76224 3.20992 -2.34993
upperneck 20.4474 5.64006 0.916083
head 6.75667 3.00664 1.11724
rclavicle -6.14245e-014 7.15625e-015
rhumerus -55.96 -20.2245 -67.3113
rradius 39.2835
rwrist 11.4998
rhand -13.4494 -32.3486
rfingers 7.12502
rthumb 12.66 -61.945
lclavicle -6.14245e-014 7.15625e-015
lhumerus 6.41769 -19.2339 96.0851
lradius 79.5265
lwrist -16.2992
lhand -41.767 -33.1118
lfingers 7.12502
lthumb -14.6707 -3.65086
rfemur -93.1816 17.9352 6.19113
rtibia 53.0556
rfoot 345.412 349.87
rtoes -27.6052
lfemur -15.5579 -4.61914 -25.7138
ltibia 34.8515
lfoot -18.2515 -1.46153
ltoes -53.9887
